<svg width="600" height="400" viewBox="0 0 600 400" fill="none" xmlns="http://www.w3.org/2000/svg">
  <!-- Background Blob -->
  <path d="M450.5 130C480.5 160 520 200 500 250C480 300 400 320 350 310C300 300 250 280 230 240C210 200 220 150 250 120C280 90 350 80 400 90C450 100 450.5 130 450.5 130Z" fill="#3b82f6" fill-opacity="0.1"/>
  
  <!-- Screen/Monitor -->
  <rect x="150" y="120" width="300" height="200" rx="10" fill="#1e293b" />
  <rect x="160" y="130" width="280" height="180" rx="4" fill="#0f172a" />
  
  <!-- Code Lines -->
  <path d="M180 150 H240" stroke="#3b82f6" stroke-width="4" stroke-linecap="round"/>
  <path d="M180 170 H300" stroke="#475569" stroke-width="4" stroke-linecap="round"/>
  <path d="M180 190 H280" stroke="#475569" stroke-width="4" stroke-linecap="round"/>
  <path d="M180 210 H220" stroke="#475569" stroke-width="4" stroke-linecap="round"/>
  
  <rect x="340" y="150" width="80" height="60" rx="4" fill="#1e293b" />
  <rect x="350" y="160" width="60" height="40" rx="2" fill="#3b82f6" fill-opacity="0.2" />

  <!-- Avatar Circle -->
  <circle cx="100" cy="300" r="40" fill="#3b82f6" />
  <path d="M80 300 L120 300 M100 280 L100 320" stroke="white" stroke-width="4"/>

  <!-- Connection Line -->
  <path d="M130 280 Q 150 250 150 220" stroke="#8b5cf6" stroke-width="2" stroke-dasharray="5 5"/>
</svg>
